# xmcd
#
# Track frame offsets: 
#        150
#        9521
#        23662
#        34623
#        42069
#        50906
#        65296
#        77508
#        92137
#        106314
#        117142
#        124219
#        136750
#        147718
#        157110
#        168469
#
# Disc length: 2419 seconds
#
# Revision: 0
# Processed by: cddbd v1.5.2PL0 Copyright (c) Steve Scherf et al.
# Submitted via: ExactAudioCopy v0.99pb5
#
DISCID=d2097110
DTITLE=George Jones - The Great George Jones
DYEAR=1900
DGENRE=
TTITLE0=the race is on
TTITLE1=a good year for the roses
TTITLE2=no show jones live
TTITLE3=jambalaya
TTITLE4=love bug
TTITLE5=who's gonna fill their shoes
TTITLE6=my favourite lies
TTITLE7=it's funny what a fool will do
TTITLE8=open pit mine
TTITLE9=tender years
TTITLE10=ways of the world wants of a woman
TTITLE11=the selfishness in man
TTITLE12=don't you ever get tired of hurting me
TTITLE13=woulds worst loser
TTITLE14=there's no justice
TTITLE15=just a girl i used to know
EXTD=
EXTT0=
EXTT1=
EXTT2=
EXTT3=
EXTT4=
EXTT5=
EXTT6=
EXTT7=
EXTT8=
EXTT9=
EXTT10=
EXTT11=
EXTT12=
EXTT13=
EXTT14=
EXTT15=
PLAYORDER=
